<svg xmlns="http://www.w3.org/2000/svg" xmlns:xlink="http://www.w3.org/1999/xlink" version="1.1" x="0px" y="0px" viewBox="0 0 100 125" style="enable-background:new 0 0 100 100;" xml:space="preserve"><style type="text/css">
	.st0{fill:none;stroke:#000000;stroke-width:2;stroke-linecap:round;stroke-linejoin:round;stroke-miterlimit:10;}
	.st1{fill:none;stroke:#000000;stroke-width:2;stroke-miterlimit:10;}
</style><path d="M90.4,81.6H80.2L51.6,24.5l3.9-7.8c0.2-0.5,0.1-1.1-0.4-1.3c-0.5-0.2-1.1,0-1.3,0.4l-3.3,6.5l-3.3-6.5  c-0.2-0.5-0.8-0.7-1.3-0.4c-0.5,0.2-0.7,0.8-0.4,1.3l3.8,7.6L20.5,81.6H10.1c-0.6,0-1,0.4-1,1s0.4,1,1,1h11h16h26.4h16h10.8  c0.6,0,1-0.4,1-1S90.9,81.6,90.4,81.6z M38.8,81.6l11.6-23.1L62,81.6H38.8z M64.2,81.6L51.3,55.8c-0.3-0.7-1.5-0.7-1.8,0L36.6,81.6  H22.8l27.6-55.1l27.6,55.1H64.2z"/><text x="0" y="115" fill="#000000" font-size="5px" font-weight="bold" font-family="'Helvetica Neue', Helvetica, Arial-Unicode, Arial, Sans-serif">Created by Made Somewhere</text><text x="0" y="120" fill="#000000" font-size="5px" font-weight="bold" font-family="'Helvetica Neue', Helvetica, Arial-Unicode, Arial, Sans-serif">from the Noun Project</text></svg>